ISO-10303-21;
HEADER;
/* Generated by software containing ST-Developer
 * from STEP Tools, Inc. (www.steptools.com) 
 */

FILE_DESCRIPTION(
/* description */ (''),
/* implementation_level */ '2;1');

FILE_NAME(
/* name */ 'C:\\Users\\rise-lab\\Desktop\\\X2\C774BBFCC11C\X0\\\camera
 mount.stp',
/* time_stamp */ '2026-09-21T15:58:26+09:00',
/* author */ ('rise-lab'),
/* organization */ (''),
/* preprocessor_version */ 'ST-DEVELOPER v19',
/* originating_system */ 'Autodesk Inventor 2023',
/* authorisation */ '');

FILE_SCHEMA (('AUTOMOTIVE_DESIGN { 1 0 10303 214 3 1 1 }'));
ENDSEC;

DATA;
#10=MECHANICAL_DESIGN_GEOMETRIC_PRESENTATION_REPRESENTATION('',(#13),#1136);
#11=SHAPE_REPRESENTATION_RELATIONSHIP('SRR','None',#1143,#12);
#12=ADVANCED_BREP_SHAPE_REPRESENTATION('',(#14),#1135);
#13=STYLED_ITEM('',(#1152),#14);
#14=MANIFOLD_SOLID_BREP('\X2\C194B9ACB4DC\X0\1',#629);
#15=FACE_BOUND('',#209,.T.);
#16=FACE_BOUND('',#210,.T.);
#17=FACE_BOUND('',#212,.T.);
#18=FACE_BOUND('',#213,.T.);
#19=FACE_BOUND('',#217,.T.);
#20=FACE_BOUND('',#218,.T.);
#21=FACE_BOUND('',#220,.T.);
#22=FACE_BOUND('',#221,.T.);
#23=PLANE('',#720);
#24=PLANE('',#721);
#25=PLANE('',#724);
#26=PLANE('',#727);
#27=PLANE('',#728);
#28=PLANE('',#729);
#29=PLANE('',#732);
#30=PLANE('',#735);
#31=LINE('',#1027,#71);
#32=LINE('',#1028,#72);
#33=LINE('',#1051,#73);
#34=LINE('',#1052,#74);
#35=LINE('',#1054,#75);
#36=LINE('',#1055,#76);
#37=LINE('',#1057,#77);
#38=LINE('',#1058,#78);
#39=LINE('',#1060,#79);
#40=LINE('',#1061,#80);
#41=LINE('',#1063,#81);
#42=LINE('',#1064,#82);
#43=LINE('',#1066,#83);
#44=LINE('',#1067,#84);
#45=LINE('',#1069,#85);
#46=LINE('',#1070,#86);
#47=LINE('',#1072,#87);
#48=LINE('',#1073,#88);
#49=LINE('',#1075,#89);
#50=LINE('',#1076,#90);
#51=LINE('',#1078,#91);
#52=LINE('',#1079,#92);
#53=LINE('',#1081,#93);
#54=LINE('',#1082,#94);
#55=LINE('',#1084,#95);
#56=LINE('',#1085,#96);
#57=LINE('',#1087,#97);
#58=LINE('',#1088,#98);
#59=LINE('',#1090,#99);
#60=LINE('',#1091,#100);
#61=LINE('',#1093,#101);
#62=LINE('',#1094,#102);
#63=LINE('',#1096,#103);
#64=LINE('',#1097,#104);
#65=LINE('',#1099,#105);
#66=LINE('',#1100,#106);
#67=LINE('',#1126,#107);
#68=LINE('',#1128,#108);
#69=LINE('',#1130,#109);
#70=LINE('',#1132,#110);
#71=VECTOR('',#820,10.);
#72=VECTOR('',#821,10.);
#73=VECTOR('',#848,10.);
#74=VECTOR('',#849,10.);
#75=VECTOR('',#852,10.);
#76=VECTOR('',#853,10.);
#77=VECTOR('',#856,10.);
#78=VECTOR('',#857,10.);
#79=VECTOR('',#860,10.);
#80=VECTOR('',#861,10.);
#81=VECTOR('',#864,10.);
#82=VECTOR('',#865,10.);
#83=VECTOR('',#868,10.);
#84=VECTOR('',#869,10.);
#85=VECTOR('',#872,10.);
#86=VECTOR('',#873,10.);
#87=VECTOR('',#876,10.);
#88=VECTOR('',#877,10.);
#89=VECTOR('',#880,10.);
#90=VECTOR('',#881,10.);
#91=VECTOR('',#884,10.);
#92=VECTOR('',#885,10.);
#93=VECTOR('',#888,10.);
#94=VECTOR('',#889,10.);
#95=VECTOR('',#892,10.);
#96=VECTOR('',#893,10.);
#97=VECTOR('',#896,10.);
#98=VECTOR('',#897,10.);
#99=VECTOR('',#900,10.);
#100=VECTOR('',#901,10.);
#101=VECTOR('',#904,10.);
#102=VECTOR('',#905,10.);
#103=VECTOR('',#908,10.);
#104=VECTOR('',#909,10.);
#105=VECTOR('',#912,10.);
#106=VECTOR('',#913,10.);
#107=VECTOR('',#948,1.8);
#108=VECTOR('',#951,1.8);
#109=VECTOR('',#954,1.8);
#110=VECTOR('',#957,1.8);
#111=CYLINDRICAL_SURFACE('',#690,1.);
#112=CYLINDRICAL_SURFACE('',#703,1.);
#113=CYLINDRICAL_SURFACE('',#704,1.);
#114=CYLINDRICAL_SURFACE('',#705,1.);
#115=CYLINDRICAL_SURFACE('',#706,1.);
#116=CYLINDRICAL_SURFACE('',#707,1.);
#117=CYLINDRICAL_SURFACE('',#708,1.);
#118=CYLINDRICAL_SURFACE('',#709,1.);
#119=CYLINDRICAL_SURFACE('',#710,1.);
#120=CYLINDRICAL_SURFACE('',#711,1.);
#121=CYLINDRICAL_SURFACE('',#712,1.);
#122=CYLINDRICAL_SURFACE('',#713,1.);
#123=CYLINDRICAL_SURFACE('',#714,1.);
#124=CYLINDRICAL_SURFACE('',#715,1.);
#125=CYLINDRICAL_SURFACE('',#716,1.);
#126=CYLINDRICAL_SURFACE('',#717,1.);
#127=CYLINDRICAL_SURFACE('',#718,1.);
#128=CYLINDRICAL_SURFACE('',#719,1.);
#129=CYLINDRICAL_SURFACE('',#736,1.8);
#130=CYLINDRICAL_SURFACE('',#737,1.8);
#131=CYLINDRICAL_SURFACE('',#738,1.8);
#132=CYLINDRICAL_SURFACE('',#739,1.8);
#133=TOROIDAL_SURFACE('',#676,2.00000000000002,1.);
#134=TOROIDAL_SURFACE('',#685,2.,0.999999999999997);
#135=FACE_OUTER_BOUND('',#177,.T.);
#136=FACE_OUTER_BOUND('',#178,.T.);
#137=FACE_OUTER_BOUND('',#179,.T.);
#138=FACE_OUTER_BOUND('',#180,.T.);
#139=FACE_OUTER_BOUND('',#181,.T.);
#140=FACE_OUTER_BOUND('',#182,.T.);
#141=FACE_OUTER_BOUND('',#183,.T.);
#142=FACE_OUTER_BOUND('',#184,.T.);
#143=FACE_OUTER_BOUND('',#185,.T.);
#144=FACE_OUTER_BOUND('',#186,.T.);
#145=FACE_OUTER_BOUND('',#187,.T.);
#146=FACE_OUTER_BOUND('',#188,.T.);
#147=FACE_OUTER_BOUND('',#189,.T.);
#148=FACE_OUTER_BOUND('',#190,.T.);
#149=FACE_OUTER_BOUND('',#191,.T.);
#150=FACE_OUTER_BOUND('',#192,.T.);
#151=FACE_OUTER_BOUND('',#193,.T.);
#152=FACE_OUTER_BOUND('',#194,.T.);
#153=FACE_OUTER_BOUND('',#195,.T.);
#154=FACE_OUTER_BOUND('',#196,.T.);
#155=FACE_OUTER_BOUND('',#197,.T.);
#156=FACE_OUTER_BOUND('',#198,.T.);
#157=FACE_OUTER_BOUND('',#199,.T.);
#158=FACE_OUTER_BOUND('',#200,.T.);
#159=FACE_OUTER_BOUND('',#201,.T.);
#160=FACE_OUTER_BOUND('',#202,.T.);
#161=FACE_OUTER_BOUND('',#203,.T.);
#162=FACE_OUTER_BOUND('',#204,.T.);
#163=FACE_OUTER_BOUND('',#205,.T.);
#164=FACE_OUTER_BOUND('',#206,.T.);
#165=FACE_OUTER_BOUND('',#207,.T.);
#166=FACE_OUTER_BOUND('',#208,.T.);
#167=FACE_OUTER_BOUND('',#211,.T.);
#168=FACE_OUTER_BOUND('',#214,.T.);
#169=FACE_OUTER_BOUND('',#215,.T.);
#170=FACE_OUTER_BOUND('',#216,.T.);
#171=FACE_OUTER_BOUND('',#219,.T.);
#172=FACE_OUTER_BOUND('',#222,.T.);
#173=FACE_OUTER_BOUND('',#223,.T.);
#174=FACE_OUTER_BOUND('',#224,.T.);
#175=FACE_OUTER_BOUND('',#225,.T.);
#176=FACE_OUTER_BOUND('',#226,.T.);
#177=EDGE_LOOP('',(#405,#406,#407));
#178=EDGE_LOOP('',(#408,#409,#410));
#179=EDGE_LOOP('',(#411,#412,#413));
#180=EDGE_LOOP('',(#414,#415,#416));
#181=EDGE_LOOP('',(#417,#418,#419));
#182=EDGE_LOOP('',(#420,#421,#422));
#183=EDGE_LOOP('',(#423,#424,#425,#426));
#184=EDGE_LOOP('',(#427,#428,#429));
#185=EDGE_LOOP('',(#430,#431,#432,#433));
#186=EDGE_LOOP('',(#434,#435,#436,#437));
#187=EDGE_LOOP('',(#438,#439,#440));
#188=EDGE_LOOP('',(#441,#442,#443));
#189=EDGE_LOOP('',(#444,#445,#446));
#190=EDGE_LOOP('',(#447,#448,#449,#450));
#191=EDGE_LOOP('',(#451,#452,#453,#454));
#192=EDGE_LOOP('',(#455,#456,#457,#458));
#193=EDGE_LOOP('',(#459,#460,#461,#462));
#194=EDGE_LOOP('',(#463,#464,#465,#466));
#195=EDGE_LOOP('',(#467,#468,#469,#470));
#196=EDGE_LOOP('',(#471,#472,#473,#474));
#197=EDGE_LOOP('',(#475,#476,#477,#478));
#198=EDGE_LOOP('',(#479,#480,#481,#482));
#199=EDGE_LOOP('',(#483,#484,#485,#486));
#200=EDGE_LOOP('',(#487,#488,#489,#490));
#201=EDGE_LOOP('',(#491,#492,#493,#494));
#202=EDGE_LOOP('',(#495,#496,#497,#498));
#203=EDGE_LOOP('',(#499,#500,#501,#502));
#204=EDGE_LOOP('',(#503,#504,#505,#506));
#205=EDGE_LOOP('',(#507,#508,#509,#510));
#206=EDGE_LOOP('',(#511,#512,#513,#514));
#207=EDGE_LOOP('',(#515,#516,#517,#518,#519,#520,#521));
#208=EDGE_LOOP('',(#522,#523,#524,#525));
#209=EDGE_LOOP('',(#526));
#210=EDGE_LOOP('',(#527));
#211=EDGE_LOOP('',(#528,#529,#530,#531));
#212=EDGE_LOOP('',(#532));
#213=EDGE_LOOP('',(#533));
#214=EDGE_LOOP('',(#534,#535,#536,#537));
#215=EDGE_LOOP('',(#538,#539,#540,#541,#542,#543,#544));
#216=EDGE_LOOP('',(#545,#546,#547,#548));
#217=EDGE_LOOP('',(#549));
#218=EDGE_LOOP('',(#550));
#219=EDGE_LOOP('',(#551,#552,#553,#554));
#220=EDGE_LOOP('',(#555));
#221=EDGE_LOOP('',(#556));
#222=EDGE_LOOP('',(#557,#558,#559,#560));
#223=EDGE_LOOP('',(#561,#562,#563,#564));
#224=EDGE_LOOP('',(#565,#566,#567,#568));
#225=EDGE_LOOP('',(#569,#570,#571,#572));
#226=EDGE_LOOP('',(#573,#574,#575,#576));
#227=CIRCLE('',#653,1.);
#228=CIRCLE('',#654,1.);
#229=CIRCLE('',#655,1.);
#230=CIRCLE('',#657,1.);
#231=CIRCLE('',#658,1.);
#232=CIRCLE('',#659,1.);
#233=CIRCLE('',#661,1.);
#234=CIRCLE('',#662,1.);
#235=CIRCLE('',#663,1.);
#236=CIRCLE('',#665,1.);
#237=CIRCLE('',#666,0.999999999999998);
#238=CIRCLE('',#667,1.);
#239=CIRCLE('',#669,1.);
#240=CIRCLE('',#670,1.);
#241=CIRCLE('',#671,1.);
#242=CIRCLE('',#673,0.999999999999998);
#243=CIRCLE('',#674,1.);
#244=CIRCLE('',#675,0.999999999999999);
#245=CIRCLE('',#677,1.);
#246=CIRCLE('',#678,1.);
#247=CIRCLE('',#679,1.);
#248=CIRCLE('',#680,2.00000000000001);
#249=CIRCLE('',#682,1.);
#250=CIRCLE('',#683,1.);
#251=CIRCLE('',#684,1.);
#252=CIRCLE('',#686,1.);
#253=CIRCLE('',#687,1.);
#254=CIRCLE('',#688,2.);
#255=CIRCLE('',#689,0.999999999999997);
#256=CIRCLE('',#692,1.);
#257=CIRCLE('',#693,1.);
#258=CIRCLE('',#694,1.);
#259=CIRCLE('',#696,1.);
#260=CIRCLE('',#697,1.);
#261=CIRCLE('',#698,1.);
#262=CIRCLE('',#700,1.);
#263=CIRCLE('',#701,1.);
#264=CIRCLE('',#702,0.999999999999996);
#265=CIRCLE('',#722,1.8);
#266=CIRCLE('',#723,1.8);
#267=CIRCLE('',#725,1.8);
#268=CIRCLE('',#726,1.8);
#269=CIRCLE('',#730,1.8);
#270=CIRCLE('',#731,1.8);
#271=CIRCLE('',#733,1.8);
#272=CIRCLE('',#734,1.8);
#273=VERTEX_POINT('',#960);
#274=VERTEX_POINT('',#961);
#275=VERTEX_POINT('',#963);
#276=VERTEX_POINT('',#967);
#277=VERTEX_POINT('',#968);
#278=VERTEX_POINT('',#970);
#279=VERTEX_POINT('',#974);
#280=VERTEX_POINT('',#975);
#281=VERTEX_POINT('',#977);
#282=VERTEX_POINT('',#981);
#283=VERTEX_POINT('',#982);
#284=VERTEX_POINT('',#984);
#285=VERTEX_POINT('',#988);
#286=VERTEX_POINT('',#989);
#287=VERTEX_POINT('',#991);
#288=VERTEX_POINT('',#995);
#289=VERTEX_POINT('',#996);
#290=VERTEX_POINT('',#998);
#291=VERTEX_POINT('',#1002);
#292=VERTEX_POINT('',#1003);
#293=VERTEX_POINT('',#1005);
#294=VERTEX_POINT('',#1007);
#295=VERTEX_POINT('',#1011);
#296=VERTEX_POINT('',#1012);
#297=VERTEX_POINT('',#1014);
#298=VERTEX_POINT('',#1018);
#299=VERTEX_POINT('',#1019);
#300=VERTEX_POINT('',#1021);
#301=VERTEX_POINT('',#1023);
#302=VERTEX_POINT('',#1030);
#303=VERTEX_POINT('',#1031);
#304=VERTEX_POINT('',#1033);
#305=VERTEX_POINT('',#1037);
#306=VERTEX_POINT('',#1038);
#307=VERTEX_POINT('',#1040);
#308=VERTEX_POINT('',#1044);
#309=VERTEX_POINT('',#1045);
#310=VERTEX_POINT('',#1047);
#311=VERTEX_POINT('',#1103);
#312=VERTEX_POINT('',#1105);
#313=VERTEX_POINT('',#1108);
#314=VERTEX_POINT('',#1110);
#315=VERTEX_POINT('',#1115);
#316=VERTEX_POINT('',#1117);
#317=VERTEX_POINT('',#1120);
#318=VERTEX_POINT('',#1122);
#319=EDGE_CURVE('',#273,#274,#227,.F.);
#320=EDGE_CURVE('',#275,#273,#228,.F.);
#321=EDGE_CURVE('',#274,#275,#229,.F.);
#322=EDGE_CURVE('',#276,#277,#230,.F.);
#323=EDGE_CURVE('',#278,#276,#231,.F.);
#324=EDGE_CURVE('',#277,#278,#232,.F.);
#325=EDGE_CURVE('',#279,#280,#233,.F.);
#326=EDGE_CURVE('',#281,#279,#234,.F.);
#327=EDGE_CURVE('',#280,#281,#235,.F.);
#328=EDGE_CURVE('',#282,#283,#236,.F.);
#329=EDGE_CURVE('',#284,#282,#237,.F.);
#330=EDGE_CURVE('',#283,#284,#238,.F.);
#331=EDGE_CURVE('',#285,#286,#239,.F.);
#332=EDGE_CURVE('',#287,#285,#240,.F.);
#333=EDGE_CURVE('',#286,#287,#241,.F.);
#334=EDGE_CURVE('',#288,#289,#242,.F.);
#335=EDGE_CURVE('',#290,#288,#243,.F.);
#336=EDGE_CURVE('',#289,#290,#244,.F.);
#337=EDGE_CURVE('',#291,#292,#245,.T.);
#338=EDGE_CURVE('',#293,#291,#246,.F.);
#339=EDGE_CURVE('',#294,#293,#247,.T.);
#340=EDGE_CURVE('',#294,#292,#248,.T.);
#341=EDGE_CURVE('',#295,#296,#249,.F.);
#342=EDGE_CURVE('',#297,#295,#250,.F.);
#343=EDGE_CURVE('',#296,#297,#251,.F.);
#344=EDGE_CURVE('',#298,#299,#252,.F.);
#345=EDGE_CURVE('',#300,#298,#253,.T.);
#346=EDGE_CURVE('',#300,#301,#254,.T.);
#347=EDGE_CURVE('',#299,#301,#255,.T.);
#348=EDGE_CURVE('',#298,#287,#31,.T.);
#349=EDGE_CURVE('',#285,#300,#32,.T.);
#350=EDGE_CURVE('',#302,#303,#256,.F.);
#351=EDGE_CURVE('',#304,#302,#257,.F.);
#352=EDGE_CURVE('',#303,#304,#258,.F.);
#353=EDGE_CURVE('',#305,#306,#259,.F.);
#354=EDGE_CURVE('',#307,#305,#260,.F.);
#355=EDGE_CURVE('',#306,#307,#261,.F.);
#356=EDGE_CURVE('',#308,#309,#262,.F.);
#357=EDGE_CURVE('',#310,#308,#263,.F.);
#358=EDGE_CURVE('',#309,#310,#264,.F.);
#359=EDGE_CURVE('',#308,#299,#33,.T.);
#360=EDGE_CURVE('',#301,#310,#34,.T.);
#361=EDGE_CURVE('',#302,#309,#35,.T.);
#362=EDGE_CURVE('',#310,#304,#36,.T.);
#363=EDGE_CURVE('',#305,#308,#37,.T.);
#364=EDGE_CURVE('',#309,#307,#38,.T.);
#365=EDGE_CURVE('',#296,#306,#39,.T.);
#366=EDGE_CURVE('',#307,#295,#40,.T.);
#367=EDGE_CURVE('',#306,#294,#41,.T.);
#368=EDGE_CURVE('',#293,#305,#42,.T.);
#369=EDGE_CURVE('',#288,#303,#43,.T.);
#370=EDGE_CURVE('',#304,#290,#44,.T.);
#371=EDGE_CURVE('',#295,#302,#45,.T.);
#372=EDGE_CURVE('',#303,#297,#46,.T.);
#373=EDGE_CURVE('',#291,#298,#47,.T.);
#374=EDGE_CURVE('',#299,#293,#48,.T.);
#375=EDGE_CURVE('',#283,#296,#49,.T.);
#376=EDGE_CURVE('',#297,#282,#50,.T.);
#377=EDGE_CURVE('',#292,#280,#51,.T.);
#378=EDGE_CURVE('',#281,#291,#52,.T.);
#379=EDGE_CURVE('',#276,#289,#53,.T.);
#380=EDGE_CURVE('',#290,#278,#54,.T.);
#381=EDGE_CURVE('',#282,#288,#55,.T.);
#382=EDGE_CURVE('',#289,#284,#56,.T.);
#383=EDGE_CURVE('',#279,#286,#57,.T.);
#384=EDGE_CURVE('',#287,#281,#58,.T.);
#385=EDGE_CURVE('',#286,#277,#59,.T.);
#386=EDGE_CURVE('',#278,#285,#60,.T.);
#387=EDGE_CURVE('',#274,#283,#61,.T.);
#388=EDGE_CURVE('',#284,#273,#62,.T.);
#389=EDGE_CURVE('',#280,#274,#63,.T.);
#390=EDGE_CURVE('',#275,#279,#64,.T.);
#391=EDGE_CURVE('',#273,#276,#65,.T.);
#392=EDGE_CURVE('',#277,#275,#66,.T.);
#393=EDGE_CURVE('',#311,#311,#265,.T.);
#394=EDGE_CURVE('',#312,#312,#266,.T.);
#395=EDGE_CURVE('',#313,#313,#267,.T.);
#396=EDGE_CURVE('',#314,#314,#268,.T.);
#397=EDGE_CURVE('',#315,#315,#269,.T.);
#398=EDGE_CURVE('',#316,#316,#270,.T.);
#399=EDGE_CURVE('',#317,#317,#271,.T.);
#400=EDGE_CURVE('',#318,#318,#272,.T.);
#401=EDGE_CURVE('',#318,#312,#67,.T.);
#402=EDGE_CURVE('',#317,#311,#68,.T.);
#403=EDGE_CURVE('',#316,#314,#69,.T.);
#404=EDGE_CURVE('',#315,#313,#70,.T.);
#405=ORIENTED_EDGE('',*,*,#319,.F.);
#406=ORIENTED_EDGE('',*,*,#320,.F.);
#407=ORIENTED_EDGE('',*,*,#321,.F.);
#408=ORIENTED_EDGE('',*,*,#322,.F.);
#409=ORIENTED_EDGE('',*,*,#323,.F.);
#410=ORIENTED_EDGE('',*,*,#324,.F.);
#411=ORIENTED_EDGE('',*,*,#325,.F.);
#412=ORIENTED_EDGE('',*,*,#326,.F.);
#413=ORIENTED_EDGE('',*,*,#327,.F.);
#414=ORIENTED_EDGE('',*,*,#328,.F.);
#415=ORIENTED_EDGE('',*,*,#329,.F.);
#416=ORIENTED_EDGE('',*,*,#330,.F.);
#417=ORIENTED_EDGE('',*,*,#331,.F.);
#418=ORIENTED_EDGE('',*,*,#332,.F.);
#419=ORIENTED_EDGE('',*,*,#333,.F.);
#420=ORIENTED_EDGE('',*,*,#334,.F.);
#421=ORIENTED_EDGE('',*,*,#335,.F.);
#422=ORIENTED_EDGE('',*,*,#336,.F.);
#423=ORIENTED_EDGE('',*,*,#337,.F.);
#424=ORIENTED_EDGE('',*,*,#338,.F.);
#425=ORIENTED_EDGE('',*,*,#339,.F.);
#426=ORIENTED_EDGE('',*,*,#340,.T.);
#427=ORIENTED_EDGE('',*,*,#341,.F.);
#428=ORIENTED_EDGE('',*,*,#342,.F.);
#429=ORIENTED_EDGE('',*,*,#343,.F.);
#430=ORIENTED_EDGE('',*,*,#344,.F.);
#431=ORIENTED_EDGE('',*,*,#345,.F.);
#432=ORIENTED_EDGE('',*,*,#346,.T.);
#433=ORIENTED_EDGE('',*,*,#347,.F.);
#434=ORIENTED_EDGE('',*,*,#345,.T.);
#435=ORIENTED_EDGE('',*,*,#348,.T.);
#436=ORIENTED_EDGE('',*,*,#332,.T.);
#437=ORIENTED_EDGE('',*,*,#349,.T.);
#438=ORIENTED_EDGE('',*,*,#350,.F.);
#439=ORIENTED_EDGE('',*,*,#351,.F.);
#440=ORIENTED_EDGE('',*,*,#352,.F.);
#441=ORIENTED_EDGE('',*,*,#353,.F.);
#442=ORIENTED_EDGE('',*,*,#354,.F.);
#443=ORIENTED_EDGE('',*,*,#355,.F.);
#444=ORIENTED_EDGE('',*,*,#356,.F.);
#445=ORIENTED_EDGE('',*,*,#357,.F.);
#446=ORIENTED_EDGE('',*,*,#358,.F.);
#447=ORIENTED_EDGE('',*,*,#357,.T.);
#448=ORIENTED_EDGE('',*,*,#359,.T.);
#449=ORIENTED_EDGE('',*,*,#347,.T.);
#450=ORIENTED_EDGE('',*,*,#360,.T.);
#451=ORIENTED_EDGE('',*,*,#351,.T.);
#452=ORIENTED_EDGE('',*,*,#361,.T.);
#453=ORIENTED_EDGE('',*,*,#358,.T.);
#454=ORIENTED_EDGE('',*,*,#362,.T.);
#455=ORIENTED_EDGE('',*,*,#354,.T.);
#456=ORIENTED_EDGE('',*,*,#363,.T.);
#457=ORIENTED_EDGE('',*,*,#356,.T.);
#458=ORIENTED_EDGE('',*,*,#364,.T.);
#459=ORIENTED_EDGE('',*,*,#341,.T.);
#460=ORIENTED_EDGE('',*,*,#365,.T.);
#461=ORIENTED_EDGE('',*,*,#355,.T.);
#462=ORIENTED_EDGE('',*,*,#366,.T.);
#463=ORIENTED_EDGE('',*,*,#353,.T.);
#464=ORIENTED_EDGE('',*,*,#367,.T.);
#465=ORIENTED_EDGE('',*,*,#339,.T.);
#466=ORIENTED_EDGE('',*,*,#368,.T.);
#467=ORIENTED_EDGE('',*,*,#335,.T.);
#468=ORIENTED_EDGE('',*,*,#369,.T.);
#469=ORIENTED_EDGE('',*,*,#352,.T.);
#470=ORIENTED_EDGE('',*,*,#370,.T.);
#471=ORIENTED_EDGE('',*,*,#342,.T.);
#472=ORIENTED_EDGE('',*,*,#371,.T.);
#473=ORIENTED_EDGE('',*,*,#350,.T.);
#474=ORIENTED_EDGE('',*,*,#372,.T.);
#475=ORIENTED_EDGE('',*,*,#338,.T.);
#476=ORIENTED_EDGE('',*,*,#373,.T.);
#477=ORIENTED_EDGE('',*,*,#344,.T.);
#478=ORIENTED_EDGE('',*,*,#374,.T.);
#479=ORIENTED_EDGE('',*,*,#328,.T.);
#480=ORIENTED_EDGE('',*,*,#375,.T.);
#481=ORIENTED_EDGE('',*,*,#343,.T.);
#482=ORIENTED_EDGE('',*,*,#376,.T.);
#483=ORIENTED_EDGE('',*,*,#337,.T.);
#484=ORIENTED_EDGE('',*,*,#377,.T.);
#485=ORIENTED_EDGE('',*,*,#327,.T.);
#486=ORIENTED_EDGE('',*,*,#378,.T.);
#487=ORIENTED_EDGE('',*,*,#323,.T.);
#488=ORIENTED_EDGE('',*,*,#379,.T.);
#489=ORIENTED_EDGE('',*,*,#336,.T.);
#490=ORIENTED_EDGE('',*,*,#380,.T.);
#491=ORIENTED_EDGE('',*,*,#329,.T.);
#492=ORIENTED_EDGE('',*,*,#381,.T.);
#493=ORIENTED_EDGE('',*,*,#334,.T.);
#494=ORIENTED_EDGE('',*,*,#382,.T.);
#495=ORIENTED_EDGE('',*,*,#326,.T.);
#496=ORIENTED_EDGE('',*,*,#383,.T.);
#497=ORIENTED_EDGE('',*,*,#333,.T.);
#498=ORIENTED_EDGE('',*,*,#384,.T.);
#499=ORIENTED_EDGE('',*,*,#331,.T.);
#500=ORIENTED_EDGE('',*,*,#385,.T.);
#501=ORIENTED_EDGE('',*,*,#324,.T.);
#502=ORIENTED_EDGE('',*,*,#386,.T.);
#503=ORIENTED_EDGE('',*,*,#319,.T.);
#504=ORIENTED_EDGE('',*,*,#387,.T.);
#505=ORIENTED_EDGE('',*,*,#330,.T.);
#506=ORIENTED_EDGE('',*,*,#388,.T.);
#507=ORIENTED_EDGE('',*,*,#325,.T.);
#508=ORIENTED_EDGE('',*,*,#389,.T.);
#509=ORIENTED_EDGE('',*,*,#321,.T.);
#510=ORIENTED_EDGE('',*,*,#390,.T.);
#511=ORIENTED_EDGE('',*,*,#320,.T.);
#512=ORIENTED_EDGE('',*,*,#391,.T.);
#513=ORIENTED_EDGE('',*,*,#322,.T.);
#514=ORIENTED_EDGE('',*,*,#392,.T.);
#515=ORIENTED_EDGE('',*,*,#346,.F.);
#516=ORIENTED_EDGE('',*,*,#349,.F.);
#517=ORIENTED_EDGE('',*,*,#386,.F.);
#518=ORIENTED_EDGE('',*,*,#380,.F.);
#519=ORIENTED_EDGE('',*,*,#370,.F.);
#520=ORIENTED_EDGE('',*,*,#362,.F.);
#521=ORIENTED_EDGE('',*,*,#360,.F.);
#522=ORIENTED_EDGE('',*,*,#348,.F.);
#523=ORIENTED_EDGE('',*,*,#373,.F.);
#524=ORIENTED_EDGE('',*,*,#378,.F.);
#525=ORIENTED_EDGE('',*,*,#384,.F.);
#526=ORIENTED_EDGE('',*,*,#393,.T.);
#527=ORIENTED_EDGE('',*,*,#394,.T.);
#528=ORIENTED_EDGE('',*,*,#359,.F.);
#529=ORIENTED_EDGE('',*,*,#363,.F.);
#530=ORIENTED_EDGE('',*,*,#368,.F.);
#531=ORIENTED_EDGE('',*,*,#374,.F.);
#532=ORIENTED_EDGE('',*,*,#395,.T.);
#533=ORIENTED_EDGE('',*,*,#396,.T.);
#534=ORIENTED_EDGE('',*,*,#361,.F.);
#535=ORIENTED_EDGE('',*,*,#371,.F.);
#536=ORIENTED_EDGE('',*,*,#366,.F.);
#537=ORIENTED_EDGE('',*,*,#364,.F.);
#538=ORIENTED_EDGE('',*,*,#365,.F.);
#539=ORIENTED_EDGE('',*,*,#375,.F.);
#540=ORIENTED_EDGE('',*,*,#387,.F.);
#541=ORIENTED_EDGE('',*,*,#389,.F.);
#542=ORIENTED_EDGE('',*,*,#377,.F.);
#543=ORIENTED_EDGE('',*,*,#340,.F.);
#544=ORIENTED_EDGE('',*,*,#367,.F.);
#545=ORIENTED_EDGE('',*,*,#369,.F.);
#546=ORIENTED_EDGE('',*,*,#381,.F.);
#547=ORIENTED_EDGE('',*,*,#376,.F.);
#548=ORIENTED_EDGE('',*,*,#372,.F.);
#549=ORIENTED_EDGE('',*,*,#397,.T.);
#550=ORIENTED_EDGE('',*,*,#398,.T.);
#551=ORIENTED_EDGE('',*,*,#379,.F.);
#552=ORIENTED_EDGE('',*,*,#391,.F.);
#553=ORIENTED_EDGE('',*,*,#388,.F.);
#554=ORIENTED_EDGE('',*,*,#382,.F.);
#555=ORIENTED_EDGE('',*,*,#399,.T.);
#556=ORIENTED_EDGE('',*,*,#400,.T.);
#557=ORIENTED_EDGE('',*,*,#383,.F.);
#558=ORIENTED_EDGE('',*,*,#390,.F.);
#559=ORIENTED_EDGE('',*,*,#392,.F.);
#560=ORIENTED_EDGE('',*,*,#385,.F.);
#561=ORIENTED_EDGE('',*,*,#400,.F.);
#562=ORIENTED_EDGE('',*,*,#401,.T.);
#563=ORIENTED_EDGE('',*,*,#394,.F.);
#564=ORIENTED_EDGE('',*,*,#401,.F.);
#565=ORIENTED_EDGE('',*,*,#399,.F.);
#566=ORIENTED_EDGE('',*,*,#402,.T.);
#567=ORIENTED_EDGE('',*,*,#393,.F.);
#568=ORIENTED_EDGE('',*,*,#402,.F.);
#569=ORIENTED_EDGE('',*,*,#398,.F.);
#570=ORIENTED_EDGE('',*,*,#403,.T.);
#571=ORIENTED_EDGE('',*,*,#396,.F.);
#572=ORIENTED_EDGE('',*,*,#403,.F.);
#573=ORIENTED_EDGE('',*,*,#397,.F.);
#574=ORIENTED_EDGE('',*,*,#404,.T.);
#575=ORIENTED_EDGE('',*,*,#395,.F.);
#576=ORIENTED_EDGE('',*,*,#404,.F.);
#577=SPHERICAL_SURFACE('',#652,1.);
#578=SPHERICAL_SURFACE('',#656,1.);
#579=SPHERICAL_SURFACE('',#660,1.);
#580=SPHERICAL_SURFACE('',#664,0.999999999999998);
#581=SPHERICAL_SURFACE('',#668,1.);
#582=SPHERICAL_SURFACE('',#672,1.);
#583=SPHERICAL_SURFACE('',#681,1.);
#584=SPHERICAL_SURFACE('',#691,1.);
#585=SPHERICAL_SURFACE('',#695,1.);
#586=SPHERICAL_SURFACE('',#699,1.);
#587=ADVANCED_FACE('',(#135),#577,.T.);
#588=ADVANCED_FACE('',(#136),#578,.T.);
#589=ADVANCED_FACE('',(#137),#579,.T.);
#590=ADVANCED_FACE('',(#138),#580,.T.);
#591=ADVANCED_FACE('',(#139),#581,.T.);
#592=ADVANCED_FACE('',(#140),#582,.T.);
#593=ADVANCED_FACE('',(#141),#133,.T.);
#594=ADVANCED_FACE('',(#142),#583,.T.);
#595=ADVANCED_FACE('',(#143),#134,.T.);
#596=ADVANCED_FACE('',(#144),#111,.T.);
#597=ADVANCED_FACE('',(#145),#584,.T.);
#598=ADVANCED_FACE('',(#146),#585,.T.);
#599=ADVANCED_FACE('',(#147),#586,.T.);
#600=ADVANCED_FACE('',(#148),#112,.T.);
#601=ADVANCED_FACE('',(#149),#113,.T.);
#602=ADVANCED_FACE('',(#150),#114,.T.);
#603=ADVANCED_FACE('',(#151),#115,.T.);
#604=ADVANCED_FACE('',(#152),#116,.T.);
#605=ADVANCED_FACE('',(#153),#117,.T.);
#606=ADVANCED_FACE('',(#154),#118,.T.);
#607=ADVANCED_FACE('',(#155),#119,.F.);
#608=ADVANCED_FACE('',(#156),#120,.T.);
#609=ADVANCED_FACE('',(#157),#121,.T.);
#610=ADVANCED_FACE('',(#158),#122,.T.);
#611=ADVANCED_FACE('',(#159),#123,.T.);
#612=ADVANCED_FACE('',(#160),#124,.T.);
#613=ADVANCED_FACE('',(#161),#125,.T.);
#614=ADVANCED_FACE('',(#162),#126,.T.);
#615=ADVANCED_FACE('',(#163),#127,.T.);
#616=ADVANCED_FACE('',(#164),#128,.T.);
#617=ADVANCED_FACE('',(#165),#23,.F.);
#618=ADVANCED_FACE('',(#166,#15,#16),#24,.T.);
#619=ADVANCED_FACE('',(#167,#17,#18),#25,.T.);
#620=ADVANCED_FACE('',(#168),#26,.T.);
#621=ADVANCED_FACE('',(#169),#27,.T.);
#622=ADVANCED_FACE('',(#170,#19,#20),#28,.T.);
#623=ADVANCED_FACE('',(#171,#21,#22),#29,.T.);
#624=ADVANCED_FACE('',(#172),#30,.T.);
#625=ADVANCED_FACE('',(#173),#129,.F.);
#626=ADVANCED_FACE('',(#174),#130,.F.);
#627=ADVANCED_FACE('',(#175),#131,.F.);
#628=ADVANCED_FACE('',(#176),#132,.F.);
#629=CLOSED_SHELL('',(#587,#588,#589,#590,#591,#592,#593,#594,#595,#596,
#597,#598,#599,#600,#601,#602,#603,#604,#605,#606,#607,#608,#609,#610,#611,
#612,#613,#614,#615,#616,#617,#618,#619,#620,#621,#622,#623,#624,#625,#626,
#627,#628));
#630=DERIVED_UNIT_ELEMENT(#633,1.);
#631=DERIVED_UNIT_ELEMENT(#1138,-3.);
#632=DIMENSIONAL_EXPONENTS(1.,0.,0.,0.,0.,0.,0.);
#633=(
CONVERSION_BASED_UNIT('gram',#635)
MASS_UNIT()
NAMED_UNIT(#632)
);
#634=(
MASS_UNIT()
NAMED_UNIT(*)
SI_UNIT(.KILO.,.GRAM.)
);
#635=MASS_MEASURE_WITH_UNIT(MASS_MEASURE(0.001),#634);
#636=DERIVED_UNIT((#630,#631));
#637=MEASURE_REPRESENTATION_ITEM('density measure',
POSITIVE_RATIO_MEASURE(1.),#636);
#638=PROPERTY_DEFINITION_REPRESENTATION(#643,#640);
#639=PROPERTY_DEFINITION_REPRESENTATION(#644,#641);
#640=REPRESENTATION('material name',(#642),#1135);
#641=REPRESENTATION('density',(#637),#1135);
#642=DESCRIPTIVE_REPRESENTATION_ITEM('\X2\C77CBC18\X0\','\X2\C77CBC18\X0\');
#643=PROPERTY_DEFINITION('material property','material name',#1145);
#644=PROPERTY_DEFINITION('material property','density of part',#1145);
#645=DATE_TIME_ROLE('creation_date');
#646=APPLIED_DATE_AND_TIME_ASSIGNMENT(#647,#645,(#1145));
#647=DATE_AND_TIME(#648,#649);
#648=CALENDAR_DATE(2026,21,9);
#649=LOCAL_TIME(0,0,0.,#650);
#650=COORDINATED_UNIVERSAL_TIME_OFFSET(0,0,.BEHIND.);
#651=AXIS2_PLACEMENT_3D('placement',#958,#740,#741);
#652=AXIS2_PLACEMENT_3D('',#959,#742,#743);
#653=AXIS2_PLACEMENT_3D('',#962,#744,#745);
#654=AXIS2_PLACEMENT_3D('',#964,#746,#747);
#655=AXIS2_PLACEMENT_3D('',#965,#748,#749);
#656=AXIS2_PLACEMENT_3D('',#966,#750,#751);
#657=AXIS2_PLACEMENT_3D('',#969,#752,#753);
#658=AXIS2_PLACEMENT_3D('',#971,#754,#755);
#659=AXIS2_PLACEMENT_3D('',#972,#756,#757);
#660=AXIS2_PLACEMENT_3D('',#973,#758,#759);
#661=AXIS2_PLACEMENT_3D('',#976,#760,#761);
#662=AXIS2_PLACEMENT_3D('',#978,#762,#763);
#663=AXIS2_PLACEMENT_3D('',#979,#764,#765);
#664=AXIS2_PLACEMENT_3D('',#980,#766,#767);
#665=AXIS2_PLACEMENT_3D('',#983,#768,#769);
#666=AXIS2_PLACEMENT_3D('',#985,#770,#771);
#667=AXIS2_PLACEMENT_3D('',#986,#772,#773);
#668=AXIS2_PLACEMENT_3D('',#987,#774,#775);
#669=AXIS2_PLACEMENT_3D('',#990,#776,#777);
#670=AXIS2_PLACEMENT_3D('',#992,#778,#779);
#671=AXIS2_PLACEMENT_3D('',#993,#780,#781);
#672=AXIS2_PLACEMENT_3D('',#994,#782,#783);
#673=AXIS2_PLACEMENT_3D('',#997,#784,#785);
#674=AXIS2_PLACEMENT_3D('',#999,#786,#787);
#675=AXIS2_PLACEMENT_3D('',#1000,#788,#789);
#676=AXIS2_PLACEMENT_3D('',#1001,#790,#791);
#677=AXIS2_PLACEMENT_3D('',#1004,#792,#793);
#678=AXIS2_PLACEMENT_3D('',#1006,#794,#795);
#679=AXIS2_PLACEMENT_3D('',#1008,#796,#797);
#680=AXIS2_PLACEMENT_3D('',#1009,#798,#799);
#681=AXIS2_PLACEMENT_3D('',#1010,#800,#801);
#682=AXIS2_PLACEMENT_3D('',#1013,#802,#803);
#683=AXIS2_PLACEMENT_3D('',#1015,#804,#805);
#684=AXIS2_PLACEMENT_3D('',#1016,#806,#807);
#685=AXIS2_PLACEMENT_3D('',#1017,#808,#809);
#686=AXIS2_PLACEMENT_3D('',#1020,#810,#811);
#687=AXIS2_PLACEMENT_3D('',#1022,#812,#813);
#688=AXIS2_PLACEMENT_3D('',#1024,#814,#815);
#689=AXIS2_PLACEMENT_3D('',#1025,#816,#817);
#690=AXIS2_PLACEMENT_3D('',#1026,#818,#819);
#691=AXIS2_PLACEMENT_3D('',#1029,#822,#823);
#692=AXIS2_PLACEMENT_3D('',#1032,#824,#825);
#693=AXIS2_PLACEMENT_3D('',#1034,#826,#827);
#694=AXIS2_PLACEMENT_3D('',#1035,#828,#829);
#695=AXIS2_PLACEMENT_3D('',#1036,#830,#831);
#696=AXIS2_PLACEMENT_3D('',#1039,#832,#833);
#697=AXIS2_PLACEMENT_3D('',#1041,#834,#835);
#698=AXIS2_PLACEMENT_3D('',#1042,#836,#837);
#699=AXIS2_PLACEMENT_3D('',#1043,#838,#839);
#700=AXIS2_PLACEMENT_3D('',#1046,#840,#841);
#701=AXIS2_PLACEMENT_3D('',#1048,#842,#843);
#702=AXIS2_PLACEMENT_3D('',#1049,#844,#845);
#703=AXIS2_PLACEMENT_3D('',#1050,#846,#847);
#704=AXIS2_PLACEMENT_3D('',#1053,#850,#851);
#705=AXIS2_PLACEMENT_3D('',#1056,#854,#855);
#706=AXIS2_PLACEMENT_3D('',#1059,#858,#859);
#707=AXIS2_PLACEMENT_3D('',#1062,#862,#863);
#708=AXIS2_PLACEMENT_3D('',#1065,#866,#867);
#709=AXIS2_PLACEMENT_3D('',#1068,#870,#871);
#710=AXIS2_PLACEMENT_3D('',#1071,#874,#875);
#711=AXIS2_PLACEMENT_3D('',#1074,#878,#879);
#712=AXIS2_PLACEMENT_3D('',#1077,#882,#883);
#713=AXIS2_PLACEMENT_3D('',#1080,#886,#887);
#714=AXIS2_PLACEMENT_3D('',#1083,#890,#891);
#715=AXIS2_PLACEMENT_3D('',#1086,#894,#895);
#716=AXIS2_PLACEMENT_3D('',#1089,#898,#899);
#717=AXIS2_PLACEMENT_3D('',#1092,#902,#903);
#718=AXIS2_PLACEMENT_3D('',#1095,#906,#907);
#719=AXIS2_PLACEMENT_3D('',#1098,#910,#911);
#720=AXIS2_PLACEMENT_3D('',#1101,#914,#915);
#721=AXIS2_PLACEMENT_3D('',#1102,#916,#917);
#722=AXIS2_PLACEMENT_3D('',#1104,#918,#919);
#723=AXIS2_PLACEMENT_3D('',#1106,#920,#921);
#724=AXIS2_PLACEMENT_3D('',#1107,#922,#923);
#725=AXIS2_PLACEMENT_3D('',#1109,#924,#925);
#726=AXIS2_PLACEMENT_3D('',#1111,#926,#927);
#727=AXIS2_PLACEMENT_3D('',#1112,#928,#929);
#728=AXIS2_PLACEMENT_3D('',#1113,#930,#931);
#729=AXIS2_PLACEMENT_3D('',#1114,#932,#933);
#730=AXIS2_PLACEMENT_3D('',#1116,#934,#935);
#731=AXIS2_PLACEMENT_3D('',#1118,#936,#937);
#732=AXIS2_PLACEMENT_3D('',#1119,#938,#939);
#733=AXIS2_PLACEMENT_3D('',#1121,#940,#941);
#734=AXIS2_PLACEMENT_3D('',#1123,#942,#943);
#735=AXIS2_PLACEMENT_3D('',#1124,#944,#945);
#736=AXIS2_PLACEMENT_3D('',#1125,#946,#947);
#737=AXIS2_PLACEMENT_3D('',#1127,#949,#950);
#738=AXIS2_PLACEMENT_3D('',#1129,#952,#953);
#739=AXIS2_PLACEMENT_3D('',#1131,#955,#956);
#740=DIRECTION('axis',(0.,0.,1.));
#741=DIRECTION('refdir',(1.,0.,0.));
#742=DIRECTION('center_axis',(-0.835539569740389,0.388999579899788,0.388011538792127));
#743=DIRECTION('ref_axis',(0.549430275283448,0.591566493948633,0.59006394216159));
#744=DIRECTION('center_axis',(0.997460045823399,4.44938223397296E-15,0.071228203585254));
#745=DIRECTION('ref_axis',(-0.071228203585254,0.,0.997460045823399));
#746=DIRECTION('center_axis',(0.,1.,0.));
#747=DIRECTION('ref_axis',(1.,0.,-1.38777878078144E-16));
#748=DIRECTION('center_axis',(0.,0.,1.));
#749=DIRECTION('ref_axis',(0.,1.,0.));
#750=DIRECTION('center_axis',(-0.835539569740395,-0.388999579899783,0.388011538792119));
#751=DIRECTION('ref_axis',(0.54943027528344,-0.591566493948638,0.590063942161593));
#752=DIRECTION('center_axis',(0.,-1.,0.));
#753=DIRECTION('ref_axis',(-0.0712282035852554,0.,0.997460045823399));
#754=DIRECTION('center_axis',(0.997460045823399,0.,0.0712282035852541));
#755=DIRECTION('ref_axis',(0.,-1.,0.));
#756=DIRECTION('center_axis',(0.,1.11022302462516E-15,1.));
#757=DIRECTION('ref_axis',(1.,0.,0.));
#758=DIRECTION('center_axis',(0.,0.,1.));
#759=DIRECTION('ref_axis',(1.,0.,0.));
#760=DIRECTION('center_axis',(0.,0.,-1.));
#761=DIRECTION('ref_axis',(1.,0.,0.));
#762=DIRECTION('center_axis',(0.,1.,0.));
#763=DIRECTION('ref_axis',(0.071228203585255,0.,-0.997460045823399));
#764=DIRECTION('center_axis',(0.997460045823399,0.,0.0712282035852552));
#765=DIRECTION('ref_axis',(0.,1.,0.));
#766=DIRECTION('center_axis',(0.,0.,1.));
#767=DIRECTION('ref_axis',(1.,0.,0.));
#768=DIRECTION('center_axis',(0.718314118611383,5.89336659808005E-15,0.695718928162481));
#769=DIRECTION('ref_axis',(-0.695718928162481,0.,0.718314118611383));
#770=DIRECTION('center_axis',(0.,1.,0.));
#771=DIRECTION('ref_axis',(-0.0712282035852542,0.,0.997460045823399));
#772=DIRECTION('center_axis',(-0.997460045823399,0.,-0.071228203585254));
#773=DIRECTION('ref_axis',(0.,1.,0.));
#774=DIRECTION('center_axis',(1.11022302462516E-16,0.,1.));
#775=DIRECTION('ref_axis',(1.,0.,0.));
#776=DIRECTION('center_axis',(0.,0.,-1.));
#777=DIRECTION('ref_axis',(0.,-1.,0.));
#778=DIRECTION('center_axis',(0.997460045823399,0.,0.0712282035852541));
#779=DIRECTION('ref_axis',(0.0712282035852541,0.,-0.997460045823399));
#780=DIRECTION('center_axis',(0.,-1.,0.));
#781=DIRECTION('ref_axis',(1.,0.,0.));
#782=DIRECTION('center_axis',(0.,0.,1.));
#783=DIRECTION('ref_axis',(1.,0.,0.));
#784=DIRECTION('center_axis',(0.,-1.,0.));
#785=DIRECTION('ref_axis',(-0.69571892816248,0.,0.718314118611385));
#786=DIRECTION('center_axis',(0.718314118611386,0.,0.695718928162478));
#787=DIRECTION('ref_axis',(0.,-1.,0.));
#788=DIRECTION('center_axis',(-0.997460045823399,0.,-0.0712282035852542));
#789=DIRECTION('ref_axis',(-0.0712282035852542,0.,0.997460045823399));
#790=DIRECTION('center_axis',(0.,-1.,0.));
#791=DIRECTION('ref_axis',(0.,0.,-1.));
#792=DIRECTION('center_axis',(0.997460045823399,0.,0.0712282035852584));
#793=DIRECTION('ref_axis',(0.0712282035852585,0.,-0.997460045823399));
#794=DIRECTION('center_axis',(0.,-1.,0.));
#795=DIRECTION('ref_axis',(-0.695718928162482,0.,0.718314118611383));
#796=DIRECTION('center_axis',(-0.718314118611384,0.,-0.69571892816248));
#797=DIRECTION('ref_axis',(0.,1.,0.));
#798=DIRECTION('center_axis',(0.,1.,0.));
#799=DIRECTION('ref_axis',(-0.408084045135047,0.,0.912944364189963));
#800=DIRECTION('center_axis',(0.,0.,1.));
#801=DIRECTION('ref_axis',(1.,0.,0.));
#802=DIRECTION('center_axis',(-0.695718928162479,0.,0.718314118611385));
#803=DIRECTION('ref_axis',(-0.718314118611385,0.,-0.695718928162479));
#804=DIRECTION('center_axis',(0.,1.,0.));
#805=DIRECTION('ref_axis',(-0.69571892816248,0.,0.718314118611384));
#806=DIRECTION('center_axis',(-0.718314118611383,0.,-0.695718928162481));
#807=DIRECTION('ref_axis',(0.,1.,0.));
#808=DIRECTION('center_axis',(0.,1.,0.));
#809=DIRECTION('ref_axis',(0.,0.,1.));
#810=DIRECTION('center_axis',(0.,1.,0.));
#811=DIRECTION('ref_axis',(-0.071228203585254,0.,0.997460045823399));
#812=DIRECTION('center_axis',(0.997460045823399,0.,0.0712282035852585));
#813=DIRECTION('ref_axis',(0.,-1.,0.));
#814=DIRECTION('center_axis',(0.,-1.,0.));
#815=DIRECTION('ref_axis',(-0.408084045135047,0.,0.912944364189963));
#816=DIRECTION('center_axis',(-0.718314118611384,0.,-0.695718928162481));
#817=DIRECTION('ref_axis',(0.695718928162481,0.,-0.718314118611384));
#818=DIRECTION('center_axis',(-0.997460045823399,0.,-0.0712282035852551));
#819=DIRECTION('ref_axis',(0.0503659457668691,-0.707106781186547,-0.70531076236437));
#820=DIRECTION('',(0.997460045823399,0.,0.0712282035852551));
#821=DIRECTION('',(-0.997460045823399,0.,-0.0712282035852551));
#822=DIRECTION('center_axis',(0.,0.,1.));
#823=DIRECTION('ref_axis',(1.,0.,0.));
#824=DIRECTION('center_axis',(0.,-1.,0.));
#825=DIRECTION('ref_axis',(-0.718314118611383,0.,-0.695718928162481));
#826=DIRECTION('center_axis',(-0.69571892816248,0.,0.718314118611384));
#827=DIRECTION('ref_axis',(0.,-1.,0.));
#828=DIRECTION('center_axis',(-0.718314118611383,0.,-0.695718928162481));
#829=DIRECTION('ref_axis',(-0.695718928162481,0.,0.718314118611383));
#830=DIRECTION('center_axis',(-0.00922444787347129,-0.816496580927727,-0.577276574004836));
#831=DIRECTION('ref_axis',(-0.0130453392880625,0.577350269189625,-0.816392360197918));
#832=DIRECTION('center_axis',(-0.718314118611382,-1.54480634542705E-15,
-0.695718928162482));
#833=DIRECTION('ref_axis',(0.695718928162482,0.,-0.718314118611382));
#834=DIRECTION('center_axis',(0.,1.,0.));
#835=DIRECTION('ref_axis',(-0.718314118611383,0.,-0.695718928162481));
#836=DIRECTION('center_axis',(0.695718928162478,0.,-0.718314118611386));
#837=DIRECTION('ref_axis',(0.,1.,0.));
#838=DIRECTION('center_axis',(0.00922444787347132,-0.816496580927725,0.577276574004839));
#839=DIRECTION('ref_axis',(-0.0130453392880625,-0.577350269189627,-0.816392360197916));
#840=DIRECTION('center_axis',(0.,-1.,0.));
#841=DIRECTION('ref_axis',(0.695718928162481,0.,-0.718314118611383));
#842=DIRECTION('center_axis',(-0.718314118611381,0.,-0.695718928162484));
#843=DIRECTION('ref_axis',(0.,-1.,0.));
#844=DIRECTION('center_axis',(0.695718928162481,6.27956818443682E-15,-0.718314118611383));
#845=DIRECTION('ref_axis',(-0.718314118611383,0.,-0.695718928162481));
#846=DIRECTION('center_axis',(-0.718314118611384,0.,-0.695718928162481));
#847=DIRECTION('ref_axis',(0.491947571903524,-0.70710678118655,-0.507924784292147));
#848=DIRECTION('',(0.718314118611384,0.,0.695718928162481));
#849=DIRECTION('',(-0.718314118611384,0.,-0.695718928162481));
#850=DIRECTION('center_axis',(-0.695718928162481,0.,0.718314118611383));
#851=DIRECTION('ref_axis',(-0.507924784292148,-0.707106781186548,-0.491947571903525));
#852=DIRECTION('',(0.695718928162481,0.,-0.718314118611383));
#853=DIRECTION('',(-0.695718928162481,0.,0.718314118611383));
#854=DIRECTION('center_axis',(0.,1.,0.));
#855=DIRECTION('ref_axis',(-0.01597721238862,0.,-0.999872356195674));
#856=DIRECTION('',(0.,-1.,0.));
#857=DIRECTION('',(0.,1.,0.));
#858=DIRECTION('center_axis',(-0.695718928162481,0.,0.718314118611383));
#859=DIRECTION('ref_axis',(-0.507924784292147,0.70710678118655,-0.491947571903524));
#860=DIRECTION('',(0.695718928162481,0.,-0.718314118611383));
#861=DIRECTION('',(-0.695718928162481,0.,0.718314118611383));
#862=DIRECTION('center_axis',(-0.718314118611384,0.,-0.695718928162481));
#863=DIRECTION('ref_axis',(0.491947571903522,0.707106781186551,-0.507924784292147));
#864=DIRECTION('',(0.718314118611384,0.,0.695718928162481));
#865=DIRECTION('',(-0.718314118611384,0.,-0.695718928162481));
#866=DIRECTION('center_axis',(0.718314118611384,0.,0.695718928162481));
#867=DIRECTION('ref_axis',(-0.491947571903528,-0.707106781186547,0.507924784292148));
#868=DIRECTION('',(-0.718314118611384,0.,-0.695718928162481));
#869=DIRECTION('',(0.718314118611384,0.,0.695718928162481));
#870=DIRECTION('center_axis',(0.,1.,0.));
#871=DIRECTION('ref_axis',(-0.999872356195674,0.,0.0159772123886232));
#872=DIRECTION('',(0.,-1.,0.));
#873=DIRECTION('',(0.,1.,0.));
#874=DIRECTION('center_axis',(0.,1.,0.));
#875=DIRECTION('ref_axis',(-0.40808404513505,0.,0.912944364189962));
#876=DIRECTION('',(0.,-1.,0.));
#877=DIRECTION('',(0.,1.,0.));
#878=DIRECTION('center_axis',(0.718314118611384,0.,0.695718928162481));
#879=DIRECTION('ref_axis',(-0.491947571903527,0.707106781186549,0.507924784292146));
#880=DIRECTION('',(-0.718314118611384,0.,-0.695718928162481));
#881=DIRECTION('',(0.718314118611384,0.,0.695718928162481));
#882=DIRECTION('center_axis',(-0.997460045823399,0.,-0.0712282035852551));
#883=DIRECTION('ref_axis',(0.050365945766869,0.707106781186549,-0.705310762364368));
#884=DIRECTION('',(0.997460045823399,0.,0.0712282035852551));
#885=DIRECTION('',(-0.997460045823399,0.,-0.0712282035852551));
#886=DIRECTION('center_axis',(0.997460045823399,0.,0.0712282035852554));
#887=DIRECTION('ref_axis',(-0.050365945766866,-0.707106781186548,0.70531076236437));
#888=DIRECTION('',(-0.997460045823399,0.,-0.0712282035852554));
#889=DIRECTION('',(0.997460045823399,0.,0.0712282035852554));
#890=DIRECTION('center_axis',(0.,1.,0.));
#891=DIRECTION('ref_axis',(-0.408084045135047,0.,0.912944364189964));
#892=DIRECTION('',(0.,-1.,0.));
#893=DIRECTION('',(0.,1.,0.));
#894=DIRECTION('center_axis',(0.,1.,0.));
#895=DIRECTION('ref_axis',(0.731856612863905,0.,-0.68145865480407));
#896=DIRECTION('',(0.,-1.,0.));
#897=DIRECTION('',(0.,1.,0.));
#898=DIRECTION('center_axis',(-1.22464679914735E-16,0.,-1.));
#899=DIRECTION('ref_axis',(0.707106781186548,-0.707106781186547,0.));
#900=DIRECTION('',(1.22464679914735E-16,0.,1.));
#901=DIRECTION('',(-1.22464679914735E-16,0.,-1.));
#902=DIRECTION('center_axis',(0.997460045823399,0.,0.0712282035852554));
#903=DIRECTION('ref_axis',(-0.0503659457668658,0.707106781186549,0.705310762364368));
#904=DIRECTION('',(-0.997460045823399,0.,-0.0712282035852554));
#905=DIRECTION('',(0.997460045823399,0.,0.0712282035852554));
#906=DIRECTION('center_axis',(-1.22464679914735E-16,0.,-1.));
#907=DIRECTION('ref_axis',(0.707106781186546,0.707106781186549,0.));
#908=DIRECTION('',(1.22464679914735E-16,0.,1.));
#909=DIRECTION('',(-1.22464679914735E-16,0.,-1.));
#910=DIRECTION('center_axis',(0.,1.,0.));
#911=DIRECTION('ref_axis',(0.68145865480407,0.,0.731856612863905));
#912=DIRECTION('',(0.,-1.,0.));
#913=DIRECTION('',(0.,1.,0.));
#914=DIRECTION('center_axis',(0.,1.,0.));
#915=DIRECTION('ref_axis',(0.,0.,1.));
#916=DIRECTION('center_axis',(0.0712282035852551,0.,-0.997460045823399));
#917=DIRECTION('ref_axis',(-0.997460045823399,0.,-0.0712282035852551));
#918=DIRECTION('center_axis',(-0.0712282035852551,0.,0.997460045823399));
#919=DIRECTION('ref_axis',(0.997460045823399,0.,0.0712282035852555));
#920=DIRECTION('center_axis',(-0.0712282035852551,0.,0.997460045823399));
#921=DIRECTION('ref_axis',(0.997460045823399,0.,0.0712282035852554));
#922=DIRECTION('center_axis',(0.695718928162481,0.,-0.718314118611384));
#923=DIRECTION('ref_axis',(-0.718314118611384,0.,-0.695718928162481));
#924=DIRECTION('center_axis',(-0.695718928162481,0.,0.718314118611384));
#925=DIRECTION('ref_axis',(0.718314118611384,0.,0.695718928162481));
#926=DIRECTION('center_axis',(-0.695718928162481,0.,0.718314118611384));
#927=DIRECTION('ref_axis',(0.718314118611384,0.,0.695718928162481));
#928=DIRECTION('center_axis',(-0.718314118611383,0.,-0.695718928162481));
#929=DIRECTION('ref_axis',(-0.695718928162481,0.,0.718314118611383));
#930=DIRECTION('center_axis',(0.,1.,0.));
#931=DIRECTION('ref_axis',(0.,0.,1.));
#932=DIRECTION('center_axis',(-0.695718928162481,0.,0.718314118611384));
#933=DIRECTION('ref_axis',(0.718314118611384,0.,0.695718928162481));
#934=DIRECTION('center_axis',(0.695718928162481,0.,-0.718314118611384));
#935=DIRECTION('ref_axis',(0.718314118611384,0.,0.695718928162481));
#936=DIRECTION('center_axis',(0.695718928162481,0.,-0.718314118611384));
#937=DIRECTION('ref_axis',(0.718314118611384,0.,0.695718928162481));
#938=DIRECTION('center_axis',(-0.0712282035852554,0.,0.997460045823399));
#939=DIRECTION('ref_axis',(0.997460045823399,0.,0.0712282035852554));
#940=DIRECTION('center_axis',(0.0712282035852554,0.,-0.997460045823399));
#941=DIRECTION('ref_axis',(0.997460045823399,0.,0.0712282035852555));
#942=DIRECTION('center_axis',(0.0712282035852554,0.,-0.997460045823399));
#943=DIRECTION('ref_axis',(0.997460045823399,0.,0.0712282035852554));
#944=DIRECTION('center_axis',(1.,0.,-1.22464679914735E-16));
#945=DIRECTION('ref_axis',(-1.22464679914735E-16,0.,-1.));
#946=DIRECTION('center_axis',(0.0712282035852554,0.,-0.997460045823399));
#947=DIRECTION('ref_axis',(0.997460045823399,0.,0.0712282035852554));
#948=DIRECTION('',(0.0712282035852554,0.,-0.997460045823399));
#949=DIRECTION('center_axis',(0.0712282035852554,0.,-0.997460045823399));
#950=DIRECTION('ref_axis',(0.997460045823399,0.,0.0712282035852555));
#951=DIRECTION('',(0.0712282035852554,0.,-0.997460045823399));
#952=DIRECTION('center_axis',(0.695718928162481,0.,-0.718314118611384));
#953=DIRECTION('ref_axis',(0.718314118611384,0.,0.695718928162481));
#954=DIRECTION('',(0.695718928162481,0.,-0.718314118611384));
#955=DIRECTION('center_axis',(0.695718928162481,0.,-0.718314118611384));
#956=DIRECTION('ref_axis',(0.718314118611384,0.,0.695718928162481));
#957=DIRECTION('',(0.695718928162481,0.,-0.718314118611384));
#958=CARTESIAN_POINT('',(0.,0.,0.));
#959=CARTESIAN_POINT('Origin',(-1.,29.,-1.07395600261959));
#960=CARTESIAN_POINT('',(-1.07122820358526,29.,-0.0764959567961952));
#961=CARTESIAN_POINT('',(-0.999999999999992,30.,-1.07395600261959));
#962=CARTESIAN_POINT('Origin',(-0.999999999999988,29.,-1.07395600261959));
#963=CARTESIAN_POINT('',(-1.86802417159827E-16,29.,-1.07395600261959));
#964=CARTESIAN_POINT('Origin',(-1.,29.,-1.07395600261959));
#965=CARTESIAN_POINT('Origin',(-1.,29.,-1.07395600261959));
#966=CARTESIAN_POINT('Origin',(-0.999999999999992,1.,-1.07395600261959));
#967=CARTESIAN_POINT('',(-1.07122820358525,1.,-0.0764959567961945));
#968=CARTESIAN_POINT('',(-1.38777878078145E-16,1.,-1.0739560026196));
#969=CARTESIAN_POINT('Origin',(-1.,1.,-1.07395600261959));
#970=CARTESIAN_POINT('',(-1.,0.,-1.07395600261959));
#971=CARTESIAN_POINT('Origin',(-0.999999999999992,1.,-1.07395600261959));
#972=CARTESIAN_POINT('Origin',(-1.,1.,-1.07395600261959));
#973=CARTESIAN_POINT('Origin',(-1.,29.,-4.06886315867615));
#974=CARTESIAN_POINT('',(-5.55111512312578E-16,29.,-4.06886315867615));
#975=CARTESIAN_POINT('',(-1.,30.,-4.06886315867615));
#976=CARTESIAN_POINT('Origin',(-1.,29.,-4.06886315867615));
#977=CARTESIAN_POINT('',(-0.928771796414745,29.,-5.06632320449955));
#978=CARTESIAN_POINT('Origin',(-1.,29.,-4.06886315867615));
#979=CARTESIAN_POINT('Origin',(-1.,29.,-4.06886315867615));
#980=CARTESIAN_POINT('Origin',(-31.7512878540478,29.,-3.26989257265913));
#981=CARTESIAN_POINT('',(-32.4470067822103,29.,-2.55157845404774));
#982=CARTESIAN_POINT('',(-31.7512878540478,30.,-3.26989257265913));
#983=CARTESIAN_POINT('Origin',(-31.7512878540478,29.,-3.26989257265912));
#984=CARTESIAN_POINT('',(-31.8225160576331,29.,-2.27243252683573));
#985=CARTESIAN_POINT('Origin',(-31.7512878540478,29.,-3.26989257265913));
#986=CARTESIAN_POINT('Origin',(-31.7512878540478,29.,-3.26989257265913));
#987=CARTESIAN_POINT('Origin',(-1.,1.,-4.06886315867615));
#988=CARTESIAN_POINT('',(-1.,0.,-4.06886315867615));
#989=CARTESIAN_POINT('',(-5.53572763400643E-16,1.,-4.06886315867615));
#990=CARTESIAN_POINT('Origin',(-1.,1.,-4.06886315867615));
#991=CARTESIAN_POINT('',(-0.928771796414746,1.,-5.06632320449955));
#992=CARTESIAN_POINT('Origin',(-1.,1.,-4.06886315867615));
#993=CARTESIAN_POINT('Origin',(-1.,1.,-4.06886315867615));
#994=CARTESIAN_POINT('Origin',(-31.7512878540478,1.,-3.26989257265913));
#995=CARTESIAN_POINT('',(-32.4470067822103,1.,-2.55157845404774));
#996=CARTESIAN_POINT('',(-31.8225160576331,1.,-2.27243252683573));
#997=CARTESIAN_POINT('Origin',(-31.7512878540478,1.,-3.26989257265913));
#998=CARTESIAN_POINT('',(-31.7512878540478,0.,-3.26989257265913));
#999=CARTESIAN_POINT('Origin',(-31.7512878540478,1.,-3.26989257265913));
#1000=CARTESIAN_POINT('Origin',(-31.7512878540478,1.,-3.26989257265913));
#1001=CARTESIAN_POINT('Origin',(-29.5657260298652,29.,-8.11382251931426));
#1002=CARTESIAN_POINT('',(-29.6369542334505,29.,-7.11636247349084));
#1003=CARTESIAN_POINT('',(-29.7081824370357,30.,-6.11890242766744));
#1004=CARTESIAN_POINT('Origin',(-29.7081824370357,29.,-6.11890242766744));
#1005=CARTESIAN_POINT('',(-30.2614449580277,29.,-7.39550840070286));
#1006=CARTESIAN_POINT('Origin',(-29.5657260298652,29.,-8.11382251931424));
#1007=CARTESIAN_POINT('',(-30.9571638861902,30.,-6.67719428209148));
#1008=CARTESIAN_POINT('Origin',(-30.9571638861902,29.,-6.67719428209148));
#1009=CARTESIAN_POINT('Origin',(-29.5657260298652,30.,-8.11382251931425));
#1010=CARTESIAN_POINT('Origin',(-41.5462405565795,29.,-12.7567365856671));
#1011=CARTESIAN_POINT('',(-42.2645546751909,29.,-13.4524555138296));
#1012=CARTESIAN_POINT('',(-41.5462405565795,30.,-12.7567365856671));
#1013=CARTESIAN_POINT('Origin',(-41.5462405565795,29.,-12.7567365856671));
#1014=CARTESIAN_POINT('',(-42.241959484742,29.,-12.0384224670557));
#1015=CARTESIAN_POINT('Origin',(-41.5462405565795,29.,-12.7567365856671));
#1016=CARTESIAN_POINT('Origin',(-41.5462405565795,29.,-12.7567365856671));
#1017=CARTESIAN_POINT('Origin',(-29.5657260298652,1.,-8.11382251931425));
#1018=CARTESIAN_POINT('',(-29.6369542334505,1.,-7.11636247349084));
#1019=CARTESIAN_POINT('',(-30.2614449580277,1.,-7.39550840070286));
#1020=CARTESIAN_POINT('Origin',(-29.5657260298652,1.,-8.11382251931424));
#1021=CARTESIAN_POINT('',(-29.7081824370357,0.,-6.11890242766744));
#1022=CARTESIAN_POINT('Origin',(-29.7081824370357,1.,-6.11890242766744));
#1023=CARTESIAN_POINT('',(-30.9571638861902,0.,-6.67719428209148));
#1024=CARTESIAN_POINT('Origin',(-29.5657260298652,0.,-8.11382251931424));
#1025=CARTESIAN_POINT('Origin',(-30.9571638861902,1.,-6.67719428209148));
#1026=CARTESIAN_POINT('Origin',(-10.8691634984784,1.,-4.77361598544776));
#1027=CARTESIAN_POINT('',(-10.7979352948931,1.,-5.77107603127116));
#1028=CARTESIAN_POINT('',(-10.8691634984784,0.,-4.77361598544776));
#1029=CARTESIAN_POINT('Origin',(-41.5462405565795,1.,-12.7567365856671));
#1030=CARTESIAN_POINT('',(-42.2645546751909,1.,-13.4524555138296));
#1031=CARTESIAN_POINT('',(-42.241959484742,1.,-12.0384224670557));
#1032=CARTESIAN_POINT('Origin',(-41.5462405565795,1.,-12.7567365856671));
#1033=CARTESIAN_POINT('',(-41.5462405565795,0.,-12.7567365856671));
#1034=CARTESIAN_POINT('Origin',(-41.5462405565795,1.,-12.7567365856671));
#1035=CARTESIAN_POINT('Origin',(-41.5462405565795,1.,-12.7567365856671));
#1036=CARTESIAN_POINT('Origin',(-39.459083772092,29.,-14.9116789415013));
#1037=CARTESIAN_POINT('',(-38.7633648439296,29.,-15.6299930601127));
#1038=CARTESIAN_POINT('',(-39.459083772092,30.,-14.9116789415013));
#1039=CARTESIAN_POINT('Origin',(-39.459083772092,29.,-14.9116789415013));
#1040=CARTESIAN_POINT('',(-40.1773978907034,29.,-15.6073978696638));
#1041=CARTESIAN_POINT('Origin',(-39.459083772092,29.,-14.9116789415013));
#1042=CARTESIAN_POINT('Origin',(-39.459083772092,29.,-14.9116789415013));
#1043=CARTESIAN_POINT('Origin',(-39.459083772092,1.,-14.9116789415013));
#1044=CARTESIAN_POINT('',(-38.7633648439296,1.,-15.6299930601127));
#1045=CARTESIAN_POINT('',(-40.1773978907034,1.,-15.6073978696638));
#1046=CARTESIAN_POINT('Origin',(-39.459083772092,1.,-14.9116789415013));
#1047=CARTESIAN_POINT('',(-39.459083772092,0.,-14.9116789415013));
#1048=CARTESIAN_POINT('Origin',(-39.459083772092,1.,-14.9116789415013));
#1049=CARTESIAN_POINT('Origin',(-39.459083772092,1.,-14.9116789415013));
#1050=CARTESIAN_POINT('Origin',(-28.7527118670659,1.,-4.54208520349563));
#1051=CARTESIAN_POINT('',(-28.0569929389035,1.,-5.26039932210701));
#1052=CARTESIAN_POINT('',(-28.7527118670659,0.,-4.54208520349563));
#1053=CARTESIAN_POINT('Origin',(-36.4464403058644,1.,-18.0221654447925));
#1054=CARTESIAN_POINT('',(-37.1647544244758,1.,-18.717884372955));
#1055=CARTESIAN_POINT('',(-36.4464403058644,0.,-18.0221654447925));
#1056=CARTESIAN_POINT('Origin',(-39.459083772092,0.,-14.9116789415013));
#1057=CARTESIAN_POINT('',(-38.7633648439296,0.,-15.6299930601127));
#1058=CARTESIAN_POINT('',(-40.1773978907034,0.,-15.6073978696638));
#1059=CARTESIAN_POINT('Origin',(-36.4464403058644,29.,-18.0221654447925));
#1060=CARTESIAN_POINT('',(-36.4464403058644,30.,-18.0221654447925));
#1061=CARTESIAN_POINT('',(-37.1647544244758,29.,-18.717884372955));
#1062=CARTESIAN_POINT('Origin',(-28.7527118670659,29.,-4.54208520349563));
#1063=CARTESIAN_POINT('',(-28.7527118670659,30.,-4.54208520349563));
#1064=CARTESIAN_POINT('',(-28.0569929389035,29.,-5.26039932210701));
#1065=CARTESIAN_POINT('Origin',(-35.5807081328239,1.,-6.97885513208099));
#1066=CARTESIAN_POINT('',(-36.2764270609863,1.,-6.2605410134696));
#1067=CARTESIAN_POINT('',(-35.5807081328239,0.,-6.97885513208099));
#1068=CARTESIAN_POINT('Origin',(-41.5462405565795,0.,-12.7567365856671));
#1069=CARTESIAN_POINT('',(-42.2645546751909,0.,-13.4524555138296));
#1070=CARTESIAN_POINT('',(-42.241959484742,0.,-12.0384224670557));
#1071=CARTESIAN_POINT('Origin',(-29.5657260298652,0.,-8.11382251931424));
#1072=CARTESIAN_POINT('',(-29.6369542334505,0.,-7.11636247349084));
#1073=CARTESIAN_POINT('',(-30.2614449580277,0.,-7.39550840070286));
#1074=CARTESIAN_POINT('Origin',(-35.5807081328239,29.,-6.97885513208099));
#1075=CARTESIAN_POINT('',(-35.5807081328239,30.,-6.97885513208099));
#1076=CARTESIAN_POINT('',(-36.2764270609863,29.,-6.2605410134696));
#1077=CARTESIAN_POINT('Origin',(-10.8691634984784,29.,-4.77361598544776));
#1078=CARTESIAN_POINT('',(-10.8691634984784,30.,-4.77361598544776));
#1079=CARTESIAN_POINT('',(-10.7979352948931,29.,-5.77107603127116));
#1080=CARTESIAN_POINT('Origin',(-26.9971062214293,1.,-2.93039845595003));
#1081=CARTESIAN_POINT('',(-27.0683344250146,1.,-1.93293841012663));
#1082=CARTESIAN_POINT('',(-26.9971062214293,0.,-2.93039845595003));
#1083=CARTESIAN_POINT('Origin',(-31.7512878540478,0.,-3.26989257265913));
#1084=CARTESIAN_POINT('',(-32.4470067822103,0.,-2.55157845404774));
#1085=CARTESIAN_POINT('',(-31.8225160576331,0.,-2.27243252683573));
#1086=CARTESIAN_POINT('Origin',(-1.,0.,-4.06886315867615));
#1087=CARTESIAN_POINT('',(-5.55111512312578E-16,0.,-4.06886315867615));
#1088=CARTESIAN_POINT('',(-0.928771796414746,0.,-5.06632320449955));
#1089=CARTESIAN_POINT('Origin',(-1.,1.,-4.08142799706879));
#1090=CARTESIAN_POINT('',(-5.55111512312578E-16,1.,-4.08142799706879));
#1091=CARTESIAN_POINT('',(-1.,0.,-4.08142799706879));
#1092=CARTESIAN_POINT('Origin',(-26.9971062214293,29.,-2.93039845595003));
#1093=CARTESIAN_POINT('',(-26.9971062214293,30.,-2.93039845595003));
#1094=CARTESIAN_POINT('',(-27.0683344250146,29.,-1.93293841012663));
#1095=CARTESIAN_POINT('Origin',(-1.,29.,-4.08142799706879));
#1096=CARTESIAN_POINT('',(-1.,30.,-4.08142799706879));
#1097=CARTESIAN_POINT('',(-5.55111512312578E-16,29.,-4.08142799706879));
#1098=CARTESIAN_POINT('Origin',(-1.,0.,-1.07395600261959));
#1099=CARTESIAN_POINT('',(-1.07122820358526,0.,-0.0764959567961952));
#1100=CARTESIAN_POINT('',(-1.38777878078145E-16,0.,-1.0739560026196));
#1101=CARTESIAN_POINT('Origin',(-21.4801368016767,0.,-8.16285599413757));
#1102=CARTESIAN_POINT('Origin',(-6.12323399573677E-16,0.,-5.));
#1103=CARTESIAN_POINT('',(-5.43003182971538,25.,-5.38775629586457));
#1104=CARTESIAN_POINT('Origin',(-3.63460374723326,25.,-5.25954552941111));
#1105=CARTESIAN_POINT('',(-5.43003182971538,5.,-5.38775629586457));
#1106=CARTESIAN_POINT('Origin',(-3.63460374723326,5.,-5.25954552941111));
#1107=CARTESIAN_POINT('Origin',(-30.,0.,-7.14228741943613));
#1108=CARTESIAN_POINT('',(-37.9013879015959,9.,-14.7951303463177));
#1109=CARTESIAN_POINT('Origin',(-36.6084224880954,9.,-13.5428362756252));
#1110=CARTESIAN_POINT('',(-37.9013879015959,21.,-14.7951303463177));
#1111=CARTESIAN_POINT('Origin',(-36.6084224880954,21.,-13.5428362756252));
#1112=CARTESIAN_POINT('Origin',(-39.4816789625409,0.,-16.3257119882751));
#1113=CARTESIAN_POINT('Origin',(-21.4801368016767,30.,-8.16285599413757));
#1114=CARTESIAN_POINT('Origin',(-42.9602736033533,0.,-12.7341413952182));
#1115=CARTESIAN_POINT('',(-41.3799825424083,9.,-11.2035597532608));
#1116=CARTESIAN_POINT('Origin',(-40.0870171289078,9.,-9.95126568256831));
#1117=CARTESIAN_POINT('',(-41.3799825424083,21.,-11.2035597532608));
#1118=CARTESIAN_POINT('Origin',(-40.0870171289078,21.,-9.95126568256831));
#1119=CARTESIAN_POINT('Origin',(-32.1855618241826,0.,-2.29835747278102));
#1120=CARTESIAN_POINT('',(-5.78526826577572,25.,-0.413123580794481));
#1121=CARTESIAN_POINT('Origin',(-3.9898401832936,25.,-0.284912814341022));
#1122=CARTESIAN_POINT('',(-5.78526826577571,5.,-0.413123580794481));
#1123=CARTESIAN_POINT('Origin',(-3.9898401832936,5.,-0.284912814341021));
#1124=CARTESIAN_POINT('Origin',(0.,0.,0.));
#1125=CARTESIAN_POINT('Origin',(-3.9898401832936,5.,-0.284912814341021));
#1126=CARTESIAN_POINT('',(-5.78526826577571,5.,-0.413123580794481));
#1127=CARTESIAN_POINT('Origin',(-3.9898401832936,25.,-0.284912814341022));
#1128=CARTESIAN_POINT('',(-5.78526826577572,25.,-0.413123580794481));
#1129=CARTESIAN_POINT('Origin',(-40.0870171289078,21.,-9.95126568256831));
#1130=CARTESIAN_POINT('',(-41.3799825424083,21.,-11.2035597532608));
#1131=CARTESIAN_POINT('Origin',(-40.0870171289078,9.,-9.95126568256831));
#1132=CARTESIAN_POINT('',(-41.3799825424083,9.,-11.2035597532608));
#1133=UNCERTAINTY_MEASURE_WITH_UNIT(LENGTH_MEASURE(0.01),#1137,
'DISTANCE_ACCURACY_VALUE',
'Maximum model space distance between geometric entities at asserted c
onnectivities');
#1134=UNCERTAINTY_MEASURE_WITH_UNIT(LENGTH_MEASURE(0.01),#1137,
'DISTANCE_ACCURACY_VALUE',
'Maximum model space distance between geometric entities at asserted c
onnectivities');
#1135=(
GEOMETRIC_REPRESENTATION_CONTEXT(3)
GLOBAL_UNCERTAINTY_ASSIGNED_CONTEXT((#1133))
GLOBAL_UNIT_ASSIGNED_CONTEXT((#1137,#1139,#1140))
REPRESENTATION_CONTEXT('','3D')
);
#1136=(
GEOMETRIC_REPRESENTATION_CONTEXT(3)
GLOBAL_UNCERTAINTY_ASSIGNED_CONTEXT((#1134))
GLOBAL_UNIT_ASSIGNED_CONTEXT((#1137,#1139,#1140))
REPRESENTATION_CONTEXT('','3D')
);
#1137=(
LENGTH_UNIT()
NAMED_UNIT(*)
SI_UNIT(.MILLI.,.METRE.)
);
#1138=(
LENGTH_UNIT()
NAMED_UNIT(*)
SI_UNIT(.CENTI.,.METRE.)
);
#1139=(
NAMED_UNIT(*)
PLANE_ANGLE_UNIT()
SI_UNIT($,.RADIAN.)
);
#1140=(
NAMED_UNIT(*)
SI_UNIT($,.STERADIAN.)
SOLID_ANGLE_UNIT()
);
#1141=SHAPE_DEFINITION_REPRESENTATION(#1142,#1143);
#1142=PRODUCT_DEFINITION_SHAPE('',$,#1145);
#1143=SHAPE_REPRESENTATION('',(#651),#1135);
#1144=PRODUCT_DEFINITION_CONTEXT('part definition',#1149,'design');
#1145=PRODUCT_DEFINITION('camera mount','camera mount',#1146,#1144);
#1146=PRODUCT_DEFINITION_FORMATION('',$,#1151);
#1147=PRODUCT_RELATED_PRODUCT_CATEGORY('camera mount','camera mount',(#1151));
#1148=APPLICATION_PROTOCOL_DEFINITION('international standard',
'automotive_design',2009,#1149);
#1149=APPLICATION_CONTEXT(
'Core Data for Automotive Mechanical Design Process');
#1150=PRODUCT_CONTEXT('part definition',#1149,'mechanical');
#1151=PRODUCT('camera mount','camera mount',$,(#1150));
#1152=PRESENTATION_STYLE_ASSIGNMENT((#1153));
#1153=SURFACE_STYLE_USAGE(.BOTH.,#1156);
#1154=SURFACE_STYLE_RENDERING_WITH_PROPERTIES($,#1160,(#1155));
#1155=SURFACE_STYLE_TRANSPARENT(0.);
#1156=SURFACE_SIDE_STYLE('',(#1157,#1154));
#1157=SURFACE_STYLE_FILL_AREA(#1158);
#1158=FILL_AREA_STYLE('',(#1159));
#1159=FILL_AREA_STYLE_COLOUR('',#1160);
#1160=COLOUR_RGB('',0.749019607843137,0.749019607843137,0.749019607843137);
ENDSEC;
END-ISO-10303-21;
